<svg width="1921" height="197" viewBox="0 0 1921 197" fill="none" xmlns="http://www.w3.org/2000/svg">
<g clip-path="url(#clip0_1_353)">
<path d="M1920.76 93.4442C1845.45 67.1601 1790.75 49.8152 1756.65 41.4097C1679.94 22.4958 1609.5 15.4271 1559.19 10.7227C1506.77 5.82075 1392.99 6.01955 1307.03 10.7227C1272.68 12.6026 1229.98 17.0495 1178.95 24.0648C1127.08 31.786 1091.5 37.5685 1072.22 41.4097C1035.97 48.6278 971 63.7845 950.805 68.094C880.124 83.1827 828.786 98.4195 778.696 106.786C690.006 121.602 645.978 123.381 571.897 125.465C505.842 123.443 456.921 120.774 425.137 117.46C371.197 111.834 308.712 99.763 273.04 93.4442C205.836 81.5376 114.667 58.4116 -0.467529 24.0648V-18.6301H1920.76V93.4442Z" fill="#F8FAFC"/>
<path opacity="0.1" d="M1920.76 184.171C1799.71 182.933 1723.41 147.896 1531.3 104.235C1403.22 75.1281 1195.49 64.9789 908.112 73.7876C1294.58 -24.3064 1632.13 -20.8555 1920.76 84.1403" fill="white"/>
<path opacity="0.1" d="M1787.34 44.467C1550.64 87.7943 1352.2 114.092 1192.02 123.359C1031.84 132.626 839.368 128.403 614.591 110.69C678.539 109.291 839.664 84.3107 1097.97 35.7483C1356.27 -12.8141 1586.06 -9.90787 1787.34 44.467Z" fill="white"/>
<path opacity="0.2" d="M525.201 115.256C412.022 145.04 214.225 160.678 0.86676 130.581V24.0647C224.78 80.1772 399.558 110.574 525.201 115.256Z" fill="white"/>
</g>
<defs>
<clipPath id="clip0_1_353">
<rect width="1920" height="196.13" fill="white" transform="translate(0.811768 0.0488281)"/>
</clipPath>
</defs>
</svg>
