<svg width="390" height="40" viewBox="0 0 390 40" fill="none" xmlns="http://www.w3.org/2000/svg">
<g clip-path="url(#clip0_1_630)">
<path d="M389.941 18.9571C374.648 13.622 363.539 10.1014 356.615 8.39523C341.036 4.55614 326.733 3.12135 316.516 2.16646C305.871 1.17148 282.764 1.21183 265.309 2.16646C258.332 2.54804 249.662 3.45067 239.299 4.87462C228.765 6.44183 221.54 7.61555 217.623 8.39523C210.263 9.86035 197.069 12.9368 192.968 13.8116C178.614 16.8742 168.189 19.9669 158.017 21.6652C140.006 24.6724 131.065 25.0336 116.021 25.4567C102.607 25.0461 92.6724 24.5045 86.2178 23.8318C75.264 22.6897 62.5748 20.2397 55.3307 18.9571C41.6832 16.5403 23.1691 11.8462 -0.211914 4.87462V-3.7915H389.941V18.9571Z" fill="#F8FAFC"/>
<path opacity="0.1" d="M389.941 37.3726C365.359 37.1214 349.866 30.0096 310.851 21.1474C284.841 15.2393 242.657 13.1792 184.298 14.9672C262.779 -4.94368 331.327 -4.24322 389.941 17.0686" fill="white"/>
<path opacity="0.1" d="M362.847 9.01556C314.779 17.81 274.481 23.1478 241.953 25.0289C209.425 26.91 170.338 26.0528 124.691 22.4573C137.677 22.1734 170.398 17.1029 222.853 7.24586C275.307 -2.61122 321.972 -2.02132 362.847 9.01556Z" fill="white"/>
<path opacity="0.2" d="M106.538 23.3842C83.5543 29.4297 43.3868 32.6039 0.0589981 26.4949V4.87445C45.5302 16.264 81.0233 22.4339 106.538 23.3842Z" fill="white"/>
</g>
<defs>
<clipPath id="clip0_1_630">
<rect width="390" height="39.81" fill="white"/>
</clipPath>
</defs>
</svg>
