<svg width="1921" height="176" viewBox="0 0 1921 176" fill="none" xmlns="http://www.w3.org/2000/svg">
<path opacity="0.1" d="M-1.64148 0.157227C120.34 1.40427 197.223 36.7109 390.823 80.7077C519.89 110.039 729.22 120.266 1018.81 111.39C629.367 210.238 289.216 206.761 -1.64148 100.957" fill="white"/>
<path opacity="0.1" d="M132.806 140.936C371.333 97.2754 571.302 70.7757 732.714 61.437C894.125 52.0983 1088.09 56.3538 1314.6 74.2035C1250.16 75.613 1087.79 100.786 827.494 149.722C567.2 198.658 335.637 195.729 132.806 140.936Z" fill="white"/>
<path opacity="0.2" d="M1404.68 69.6026C1518.73 39.5893 1718.05 23.8307 1933.05 54.1593V161.495C1707.41 104.951 1531.29 74.3201 1404.68 69.6026Z" fill="white"/>
<path d="M-3.71594 88.9401C72.4201 114.704 127.707 131.66 162.145 139.802C239.629 158.127 310.673 164.574 361.41 168.835C414.277 173.271 528.934 171.983 615.504 166.42C650.104 164.198 693.083 159.306 744.441 151.75C796.634 143.474 832.431 137.305 851.828 133.249C888.282 125.63 953.607 109.737 973.914 105.199C1044.99 89.3193 1096.58 73.4745 1146.97 64.5633C1236.2 48.7858 1280.55 46.5714 1355.18 43.7615C1421.76 45.1665 1471.08 47.3875 1503.14 50.4234C1557.55 55.5754 1620.63 67.1407 1656.63 73.168C1724.46 84.5208 1816.56 106.952 1932.9 140.459L1933.31 183.48L-2.82321 183.049L-3.71594 88.9401Z" fill="white"/>
</svg>
