<svg width="394" height="30" viewBox="0 0 394 30" fill="none" xmlns="http://www.w3.org/2000/svg">
<path d="M0 10.0268C15.4641 15.2581 26.6937 18.7007 33.6883 20.354C49.4263 24.0748 63.8561 25.3838 74.1615 26.2489C84.8995 27.1497 108.188 26.8882 125.771 25.7586C132.799 25.3073 141.528 24.3142 151.96 22.78C162.561 21.0995 169.831 19.847 173.771 19.0234C181.175 17.4764 194.444 14.2494 198.568 13.3281C213.005 10.1038 223.482 6.88662 233.719 5.07726C251.841 1.87373 260.849 1.42412 276.008 0.853577C289.531 1.13885 299.548 1.58983 306.06 2.20623C317.111 3.25233 329.923 5.60057 337.236 6.82438C351.014 9.1295 369.719 13.684 393.35 20.4875L393.433 29.2225L0.181324 29.1349L0 10.0268Z" fill="white"/>
</svg>
