<svg width="183" height="45" viewBox="0 0 183 45" fill="none" xmlns="http://www.w3.org/2000/svg">
<g clip-path="url(#clip0_1_372)">
<path d="M31.0188 36.6814H1.03369V39.8377H31.0188V36.6814Z" fill="#2A2A31"/>
<path d="M31.9184 21.902C31.5791 20.6394 30.285 19.8898 29.0225 20.2291L20.6345 22.478L9.74515 12.3225L6.69931 13.1431L13.2329 24.4665L5.38945 26.5654L2.28835 24.1271L0 24.7427L2.87228 29.7218L4.07959 31.8129L6.61256 31.1343L15.0005 28.8853L21.8577 27.0468L30.2456 24.7979C31.5081 24.4586 32.2577 23.1645 31.9184 21.902Z" fill="#DB2777"/>
</g>
<path d="M41.979 36V12.528H47.271V31.536H56.559V36H41.979ZM65.9089 24.12L65.3329 26.28H70.3369L69.7969 24.12C69.4849 22.944 69.1609 21.696 68.8249 20.376C68.5129 19.056 68.2009 17.784 67.8889 16.56H67.7449C67.4569 17.808 67.1569 19.092 66.8449 20.412C66.5569 21.708 66.2449 22.944 65.9089 24.12ZM57.4129 36L64.7569 12.528H71.1289L78.4729 36H72.8569L71.4169 30.42H64.2529L62.8129 36H57.4129ZM81.0376 36V12.528H86.4736L92.5936 24.192L94.8976 29.376H95.0416C94.9456 28.128 94.8136 26.736 94.6456 25.2C94.4776 23.664 94.3936 22.2 94.3936 20.808V12.528H99.4336V36H93.9976L87.8776 24.3L85.5736 19.188H85.4296C85.5496 20.484 85.6816 21.876 85.8256 23.364C85.9936 24.852 86.0776 26.292 86.0776 27.684V36H81.0376ZM104.979 36V12.528H111.603C114.003 12.528 116.079 12.936 117.831 13.752C119.583 14.568 120.939 15.84 121.899 17.568C122.883 19.272 123.375 21.468 123.375 24.156C123.375 26.844 122.895 29.064 121.935 30.816C120.975 32.568 119.631 33.876 117.903 34.74C116.199 35.58 114.195 36 111.891 36H104.979ZM110.271 31.716H111.279C112.623 31.716 113.787 31.476 114.771 30.996C115.779 30.516 116.559 29.724 117.111 28.62C117.663 27.516 117.939 26.028 117.939 24.156C117.939 22.284 117.663 20.82 117.111 19.764C116.559 18.684 115.779 17.928 114.771 17.496C113.787 17.04 112.623 16.812 111.279 16.812H110.271V31.716ZM127.831 36V12.528H133.123V36H127.831ZM138.659 36V12.528H144.095L150.215 24.192L152.519 29.376H152.663C152.567 28.128 152.435 26.736 152.267 25.2C152.099 23.664 152.015 22.2 152.015 20.808V12.528H157.055V36H151.619L145.499 24.3L143.195 19.188H143.051C143.171 20.484 143.303 21.876 143.447 23.364C143.615 24.852 143.699 26.292 143.699 27.684V36H138.659ZM172.968 36.432C170.832 36.432 168.888 35.976 167.136 35.064C165.408 34.152 164.028 32.808 162.996 31.032C161.988 29.232 161.484 27.024 161.484 24.408C161.484 21.816 162 19.608 163.032 17.784C164.088 15.936 165.48 14.532 167.208 13.572C168.936 12.588 170.844 12.096 172.932 12.096C174.636 12.096 176.1 12.408 177.324 13.032C178.548 13.656 179.544 14.364 180.312 15.156L177.54 18.54C176.94 18.012 176.304 17.568 175.632 17.208C174.96 16.848 174.12 16.668 173.112 16.668C171.288 16.668 169.8 17.34 168.648 18.684C167.496 20.028 166.92 21.876 166.92 24.228C166.92 26.628 167.472 28.5 168.576 29.844C169.68 31.188 171.324 31.86 173.508 31.86C173.988 31.86 174.456 31.8 174.912 31.68C175.368 31.56 175.74 31.38 176.028 31.14V27.108H172.14V22.788H180.708V33.588C179.892 34.38 178.8 35.052 177.432 35.604C176.088 36.156 174.6 36.432 172.968 36.432Z" fill="#DB2777"/>
<defs>
<clipPath id="clip0_1_372">
<rect width="32" height="32" fill="white" transform="translate(0 10.0801)"/>
</clipPath>
</defs>
</svg>
