<svg width="133" height="35" viewBox="0 0 133 35" fill="none" xmlns="http://www.w3.org/2000/svg">
<g clip-path="url(#clip0_1_650)">
<path d="M31.0188 29.3813H1.03369V32.5377H31.0188V29.3813Z" fill="#2A2A31"/>
<path d="M31.9184 14.6014C31.5791 13.3389 30.285 12.5893 29.0225 12.9286L20.6345 15.1774L9.74515 5.02197L6.69931 5.84259L13.2329 17.1659L5.38945 19.2649L2.28835 16.8266L0 17.4422L2.87228 22.4213L4.07959 24.5123L6.61256 23.8337L15.0005 21.5848L21.8577 19.7463L30.2456 17.4974C31.5081 17.158 32.2577 15.864 31.9184 14.6014Z" fill="#DB2777"/>
</g>
<path d="M38.6527 25.73V10.082H42.1807V22.754H48.3727V25.73H38.6527ZM54.6059 17.81L54.2219 19.25H57.5579L57.1979 17.81C56.9899 17.026 56.7739 16.194 56.5499 15.314C56.3419 14.434 56.1339 13.586 55.9259 12.77H55.8299C55.6379 13.602 55.4379 14.458 55.2299 15.338C55.0379 16.202 54.8299 17.026 54.6059 17.81ZM48.9419 25.73L53.8379 10.082H58.0859L62.9819 25.73H59.2379L58.2779 22.01H53.5019L52.5419 25.73H48.9419ZM64.6918 25.73V10.082H68.3158L72.3958 17.858L73.9318 21.314H74.0278C73.9638 20.482 73.8758 19.554 73.7638 18.53C73.6518 17.506 73.5958 16.53 73.5958 15.602V10.082H76.9557V25.73H73.3318L69.2518 17.93L67.7158 14.522H67.6198C67.6998 15.386 67.7878 16.314 67.8838 17.306C67.9958 18.298 68.0518 19.258 68.0518 20.186V25.73H64.6918ZM80.6527 25.73V10.082H85.0687C86.6687 10.082 88.0527 10.354 89.2207 10.898C90.3887 11.442 91.2927 12.29 91.9327 13.442C92.5887 14.578 92.9167 16.042 92.9167 17.834C92.9167 19.626 92.5967 21.106 91.9567 22.274C91.3167 23.442 90.4207 24.314 89.2687 24.89C88.1327 25.45 86.7967 25.73 85.2607 25.73H80.6527ZM84.1807 22.874H84.8527C85.7487 22.874 86.5247 22.714 87.1807 22.394C87.8527 22.074 88.3727 21.546 88.7407 20.81C89.1087 20.074 89.2927 19.082 89.2927 17.834C89.2927 16.586 89.1087 15.61 88.7407 14.906C88.3727 14.186 87.8527 13.682 87.1807 13.394C86.5247 13.09 85.7487 12.938 84.8527 12.938H84.1807V22.874ZM95.8871 25.73V10.082H99.4151V25.73H95.8871ZM103.106 25.73V10.082H106.73L110.81 17.858L112.346 21.314H112.442C112.378 20.482 112.29 19.554 112.178 18.53C112.066 17.506 112.01 16.53 112.01 15.602V10.082H115.37V25.73H111.746L107.666 17.93L106.13 14.522H106.034C106.114 15.386 106.202 16.314 106.298 17.306C106.41 18.298 106.466 19.258 106.466 20.186V25.73H103.106ZM125.979 26.018C124.555 26.018 123.259 25.714 122.091 25.106C120.939 24.498 120.019 23.602 119.331 22.418C118.659 21.218 118.323 19.746 118.323 18.002C118.323 16.274 118.667 14.802 119.355 13.586C120.059 12.354 120.987 11.418 122.139 10.778C123.291 10.122 124.563 9.79398 125.955 9.79398C127.091 9.79398 128.067 10.002 128.883 10.418C129.699 10.834 130.363 11.306 130.875 11.834L129.027 14.09C128.627 13.738 128.203 13.442 127.755 13.202C127.307 12.962 126.747 12.842 126.075 12.842C124.859 12.842 123.867 13.29 123.099 14.186C122.331 15.082 121.947 16.314 121.947 17.882C121.947 19.482 122.315 20.73 123.051 21.626C123.787 22.522 124.883 22.97 126.339 22.97C126.659 22.97 126.971 22.93 127.275 22.85C127.579 22.77 127.827 22.65 128.019 22.49V19.802H125.427V16.922H131.139V24.122C130.595 24.65 129.867 25.098 128.955 25.466C128.059 25.834 127.067 26.018 125.979 26.018Z" fill="#DB2777"/>
<defs>
<clipPath id="clip0_1_650">
<rect width="32" height="32" fill="white" transform="translate(0 2.77979)"/>
</clipPath>
</defs>
</svg>
